Jump_normalized_Motion_pl14
version=1
nRows=23
nColumns=43
inDegrees=yes
endheader
time		pelvis_tilt		pelvis_list		pelvis_rotation		pelvis_tx		pelvis_ty		pelvis_tz		hip_flexion_r		hip_adduction_r		hip_rotation_r		knee_angle_r		ankle_angle_r		subtalar_angle_r		mtp_angle_r		hip_flexion_l		hip_adduction_l		hip_rotation_l		knee_angle_l		ankle_angle_l		subtalar_angle_l		mtp_angle_l		lumbar_extension		lumbar_bending		lumbar_rotation		neck_flexion		neck_lateral_bending		neck_rotation		arm_flex_r		arm_add_r		arm_rot_r		elbow_flex_r		pro_sup_r		wrist_flex_r		wrist_dev_r		hand_finger_flex_r		arm_flex_l		arm_add_l		arm_rot_l		elbow_flex_l		pro_sup_l		wrist_flex_l		wrist_dev_l		hand_finger_flex_l		
0.620000		-0.525277		-0.021374		85.554079		0.050338		1.763184		1.907028		83.484512		-3.145116		5.174318		-149.935943		24.113886		4.681046		5.434292		79.985122		-7.918164		11.575226		-150.145117		22.275636		21.589322		14.466681		-65.225194		-5.286193		0.924534		39.633285		2.050053		-3.678131		46.540020		-26.470087		5.235182		70.205739		89.438793		-0.691630		-2.702963		-28.028776		59.104529		-18.553523		15.405569		56.760265		105.622682		-5.184721		4.370197		0.326399		
0.624242		-0.520235		-0.214860		85.514371		0.050481		1.763203		1.904712		83.391671		-3.094105		5.206737		-149.967703		24.076090		4.744384		5.495722		79.830305		-7.911553		11.620260		-150.159266		22.279503		21.624795		14.527270		-64.919116		-5.317186		0.874184		39.596584		2.191331		-3.618526		47.628267		-26.550552		5.269605		70.706041		89.431152		-0.646104		-2.813415		-27.879265		60.201991		-18.648073		15.594475		56.958738		105.731847		-5.126764		4.375386		0.422454		
0.628485		-0.519621		-0.405583		85.475991		0.050596		1.763210		1.902343		83.296072		-3.052277		5.255213		-149.999934		24.033463		4.822864		5.564795		79.672631		-7.892619		11.680199		-150.176481		22.258304		21.709564		14.595564		-64.614915		-5.344072		0.829117		39.554129		2.326284		-3.550657		48.762713		-26.653371		5.324663		71.218788		89.381094		-0.585495		-2.907962		-27.734818		61.350416		-18.726612		15.802535		57.127284		105.818921		-5.088825		4.379765		0.508179		
0.632727		-0.519826		-0.576251		85.437487		0.050705		1.763286		1.899936		83.161041		-3.029228		5.317489		-150.020072		23.995120		4.944225		5.686478		79.490921		-7.861388		11.760421		-150.176183		22.215961		21.886249		14.717194		-64.331768		-5.366921		0.796040		39.493633		2.456619		-3.480869		49.945827		-26.793593		5.417701		71.754696		89.240146		-0.518426		-2.976309		-27.583819		62.568293		-18.800290		16.095821		57.250291		105.871119		-5.102740		4.380779		0.609041		
0.636970		-0.511586		-0.609729		85.401311		0.050836		1.763640		1.897513		82.847662		-3.062989		5.408147		-150.029068		23.982141		5.258270		6.181756		79.132617		-7.847712		11.914798		-150.152206		22.143419		22.419486		15.220380		-64.193529		-5.390573		0.810541		39.427992		2.592283		-3.445777		51.222717		-27.087209		5.637122		72.313203		88.638137		-0.556608		-2.952633		-27.318306		64.030772		-18.916389		16.839066		57.177656		105.719641		-5.463468		4.356810		0.899251		
0.641212		-0.501117		-0.876665		85.389293		0.050733		1.763406		1.895081		82.833434		-3.150462		5.437673		-150.059811		23.987981		5.358632		6.316858		79.076343		-7.822018		11.949805		-150.193234		22.104469		22.503207		15.351698		-63.804572		-5.346263		0.830137		39.509870		2.631284		-3.400291		52.584529		-27.473954		5.955711		72.850061		88.702366		-0.313436		-2.936048		-27.249370		65.420922		-18.982593		17.292375		57.143155		105.835685		-5.412935		4.399166		1.018806		
0.645455		-0.481632		-1.070219		85.399281		0.050697		1.763363		1.892614		82.677645		-3.231078		5.466848		-150.073653		24.020192		5.516562		6.516543		78.927018		-7.808982		11.962056		-150.212703		22.128953		22.579272		15.540682		-63.493206		-5.290466		0.876918		39.464571		2.652807		-3.413317		53.955629		-27.818417		6.151997		73.413750		88.830993		-0.103148		-2.925690		-27.260641		66.885852		-19.018027		17.851373		57.069323		105.929543		-5.495515		4.408507		1.141542		
0.649697		-0.471486		-1.298083		85.402566		0.050643		1.763333		1.890102		82.569452		-3.313743		5.490175		-150.074013		24.041155		5.635008		6.709690		78.768081		-7.825943		11.923572		-150.212981		22.181957		22.569142		15.717868		-63.155872		-5.234914		0.920386		39.446497		2.656369		-3.437725		55.373273		-28.129799		6.324903		73.973699		89.123795		0.066464		-2.960005		-27.289966		68.377106		-19.013786		18.363972		56.954898		105.985855		-5.638042		4.420612		1.248190		
0.653939		-0.467393		-1.532280		85.410197		0.050567		1.763264		1.887544		82.462643		-3.381048		5.526518		-150.087263		24.037720		5.720057		6.906463		78.618780		-7.827603		11.865916		-150.213849		22.237697		22.504556		15.898855		-62.810193		-5.172859		0.972986		39.410752		2.644682		-3.442874		56.854406		-28.464166		6.543303		74.509559		89.615099		0.167223		-3.018905		-27.305056		69.928165		-19.011312		18.949281		56.816763		106.029605		-5.811090		4.460648		1.353796		
0.658182		-0.465869		-1.739537		85.424827		0.050520		1.763278		1.884914		82.329699		-3.439850		5.562768		-150.092888		24.004712		5.793857		7.206996		78.425733		-7.817306		11.833564		-150.204565		22.240042		22.447416		16.187862		-62.494651		-5.107921		1.011449		39.368543		2.632474		-3.446839		58.373815		-28.713921		6.744822		75.035678		90.343376		0.118782		-3.096746		-27.301175		71.509677		-19.015076		19.639060		56.669780		105.940014		-6.201086		4.486135		1.495818		
0.662424		-0.471933		-1.964250		85.427269		0.050438		1.763199		1.882238		82.204843		-3.484007		5.616221		-150.119920		23.947124		5.843177		7.672394		78.271144		-7.778919		11.816247		-150.208716		22.194142		22.438013		16.654563		-62.165115		-5.052839		1.047297		39.356975		2.616362		-3.430424		59.956385		-28.987780		7.003690		75.547619		91.213008		0.059830		-3.152613		-27.209462		73.130188		-19.047864		20.444889		56.539060		105.656821		-6.802077		4.478950		1.765865		
0.666667		-0.428357		-2.255237		85.436864		0.050318		1.762996		1.879532		82.135284		-3.522185		5.609688		-150.126918		23.937908		5.888776		7.859841		78.190241		-7.724349		11.892845		-150.222412		22.165518		22.473092		16.875420		-61.762632		-4.944549		1.111564		39.298585		2.594614		-3.385563		61.637326		-29.306898		7.451716		76.040267		91.606684		0.036231		-3.159973		-27.134288		74.693962		-19.065650		21.016054		56.468614		105.760972		-6.907493		4.493656		1.902956		
0.670909		-0.358189		-2.534726		85.452560		0.050254		1.762901		1.876793		82.000533		-3.546004		5.553363		-150.113646		23.964118		5.924026		8.098226		78.101739		-7.692586		11.968189		-150.239442		22.125817		22.460083		17.164307		-61.391173		-4.824233		1.181217		39.350183		2.594245		-3.361309		63.393359		-29.566776		7.918527		76.478988		92.032621		-0.100872		-3.137742		-27.063052		76.282300		-19.063945		21.563120		56.349909		105.812768		-7.143548		4.383758		2.033822		
0.675152		-0.300809		-2.876326		85.462674		0.050220		1.762743		1.874029		81.913194		-3.565376		5.488487		-150.091533		24.039365		5.947548		8.238654		78.073962		-7.695796		11.978511		-150.256085		22.113803		22.341806		17.330490		-60.962497		-4.717703		1.230288		39.470692		2.620828		-3.353873		65.186661		-29.762925		8.359655		76.873798		92.374002		-0.155432		-3.098685		-26.994775		77.856181		-19.028485		21.963488		56.222502		105.922365		-7.231502		4.260243		2.101003		
0.679394		-0.201880		-3.161664		85.489804		0.050167		1.762752		1.871161		81.694765		-3.599911		5.382983		-150.043231		24.146228		5.969549		8.438816		77.961278		-7.720468		11.964659		-150.261204		22.101720		22.048570		17.570595		-60.590637		-4.562750		1.309883		39.490766		2.618707		-3.340775		67.038595		-29.957652		8.876900		77.262767		92.863282		-0.389340		-3.020783		-26.908761		79.442784		-19.056561		22.501642		56.093616		105.996017		-7.431035		3.998356		2.177796		
0.683636		-0.125345		-3.480323		85.517220		0.050071		1.762759		1.868230		81.492552		-3.662028		5.290606		-149.983739		24.280102		5.977817		8.633527		77.852313		-7.759870		11.879266		-150.243716		22.119435		21.668945		17.807381		-60.186221		-4.408404		1.366845		39.503889		2.615332		-3.323009		68.943205		-30.149357		9.449094		77.612295		93.411545		-0.643666		-2.948840		-26.734191		81.031876		-19.115671		23.064488		55.986662		106.047322		-7.627384		3.784288		2.254905		
0.687879		-0.049146		-3.730531		85.577920		0.049880		1.762988		1.865221		81.180380		-3.764325		5.191583		-149.906798		24.375462		5.990386		8.942102		77.645795		-7.774944		11.743831		-150.213121		22.110589		21.134205		18.221453		-59.864360		-4.204920		1.360068		39.561063		2.553707		-3.253964		70.960712		-30.181396		10.095002		77.822974		94.151310		-1.293607		-2.908800		-26.284946		82.661128		-19.268169		23.777005		55.871602		105.896584		-8.153664		3.564254		2.359784		
0.692121		-0.056468		-4.180643		85.590126		0.049680		1.762694		1.862116		81.156905		-3.866828		5.170191		-149.871496		24.507721		5.944201		9.069924		77.615232		-7.791568		11.640162		-150.187635		22.219410		21.055613		18.405009		-59.308911		-4.102185		1.363119		39.608617		2.613103		-3.244149		72.879225		-30.332571		10.639775		78.079999		94.410514		-1.337517		-2.940291		-25.985380		84.188715		-19.292950		24.214339		55.860103		105.979132		-8.216263		3.602345		2.439421		
0.696364		-0.034702		-4.561313		85.606472		0.049412		1.762636		1.858942		81.032606		-3.964888		5.120160		-149.817748		24.594209		5.872518		9.218400		77.478985		-7.776514		11.566533		-150.147456		22.310503		20.961821		18.641076		-58.833471		-3.962837		1.344169		39.697793		2.640499		-3.182371		74.899056		-30.347853		11.289235		78.205650		94.597544		-1.584433		-2.959963		-25.753526		85.741842		-19.380440		24.699482		55.824852		106.040233		-8.412518		3.614621		2.465958		
0.700606		-0.019164		-4.949771		85.593350		0.049174		1.762702		1.855626		80.909874		-4.052345		5.060893		-149.746188		24.630555		5.785718		9.339210		77.288113		-7.786032		11.485304		-150.082666		22.367694		20.911824		18.843854		-58.354352		-3.848310		1.324956		39.858382		2.678606		-3.110586		76.867865		-30.195948		11.808322		78.300898		94.535914		-1.840593		-2.945979		-25.727665		87.240651		-19.406578		25.017710		55.767543		106.049888		-8.596707		3.633743		2.437358		
0.704848		0.000942		-5.269520		85.580688		0.048893		1.762844		1.852248		80.691516		-4.113714		4.991830		-149.678656		24.679989		5.629690		9.529638		77.011852		-7.798663		11.378302		-150.038724		22.443914		20.816193		19.160654		-57.936847		-3.722544		1.288697		39.939007		2.723582		-2.983518		78.967115		-30.136942		12.646025		78.352089		94.244216		-2.195734		-2.865819		-25.812414		88.775178		-19.534697		25.523662		55.754967		105.951548		-8.829738		3.648049		2.391709		
0.709091		-0.020597		-5.732521		85.521184		0.048651		1.762843		1.848751		80.610753		-4.166148		4.970329		-149.596354		24.781628		5.512992		9.613231		76.824197		-7.839907		11.201330		-149.951115		22.562815		20.732032		19.282377		-57.353531		-3.668427		1.294984		40.028459		2.824685		-2.937975		80.943893		-30.045600		13.221322		78.434482		94.199958		-2.149501		-2.715893		-25.841560		90.239390		-19.500568		25.816353		55.668305		106.009614		-8.794718		3.713708		2.371350		
0.713333		-0.003173		-6.004190		85.495733		0.048348		1.763281		1.845090		80.221014		-4.239634		4.882795		-149.487488		24.918051		5.301994		9.790406		76.411119		-7.890409		10.953663		-149.857302		22.697592		20.374471		19.509359		-56.970166		-3.535961		1.291987		39.944500		2.788512		-2.767556		83.123831		-30.038174		14.161130		78.444737		94.278591		-2.304828		-2.508465		-25.913349		91.721333		-19.675995		26.394293		55.716363		105.910235		-8.843444		3.752571		2.251040		
